<svg width="29" height="32" viewBox="0 0 29 32" fill="none" xmlns="http://www.w3.org/2000/svg">
<path d="M11.8883 28.4829C12.1348 28.9098 12.4893 29.2642 12.9161 29.5106C13.3429 29.757 13.8271 29.8868 14.32 29.8868C14.8128 29.8868 15.297 29.757 15.7238 29.5106C16.1507 29.2642 16.5051 28.9098 16.7516 28.4829M2.05235 20.517C1.86895 20.718 1.74791 20.968 1.70397 21.2365C1.66003 21.5051 1.69508 21.7806 1.80485 22.0296C1.91462 22.2786 2.09438 22.4903 2.32227 22.639C2.55016 22.7877 2.81635 22.867 3.08846 22.8672H25.5515C25.8236 22.8673 26.0898 22.7883 26.3178 22.6399C26.5459 22.4915 26.7259 22.28 26.8359 22.0312C26.946 21.7823 26.9814 21.5069 26.9378 21.2383C26.8942 20.9698 26.7735 20.7196 26.5904 20.5184C24.7232 18.5936 22.7436 16.5481 22.7436 10.2317C22.7436 7.99765 21.8561 5.85507 20.2764 4.27533C18.6966 2.69559 16.5541 1.80811 14.32 1.80811C12.0859 1.80811 9.9433 2.69559 8.36356 4.27533C6.78382 5.85507 5.89634 7.99765 5.89634 10.2317C5.89634 16.5481 3.91538 18.5936 2.05235 20.517Z" stroke="#C8D3DE" stroke-width="2.80788" stroke-linecap="round" stroke-linejoin="round"/>
</svg>
