<svg width="29" height="30" viewBox="0 0 29 30" fill="none" xmlns="http://www.w3.org/2000/svg">
<path d="M19.0591 28.4826V17.2511C19.0591 16.8788 18.9111 16.5217 18.6479 16.2584C18.3846 15.9951 18.0275 15.8472 17.6551 15.8472H12.0394C11.667 15.8472 11.3099 15.9951 11.0466 16.2584C10.7833 16.5217 10.6354 16.8788 10.6354 17.2511V28.4826M2.21179 13.0393C2.21169 12.6309 2.30071 12.2273 2.47263 11.8568C2.64454 11.4863 2.89523 11.1577 3.20718 10.8941L13.0348 2.47046C13.5416 2.04213 14.1837 1.80713 14.8472 1.80713C15.5108 1.80713 16.1529 2.04213 16.6597 2.47046L26.4873 10.8941C26.7993 11.1577 27.0499 11.4863 27.2219 11.8568C27.3938 12.2273 27.4828 12.6309 27.4827 13.0393V25.6748C27.4827 26.4195 27.1869 27.1336 26.6603 27.6602C26.1337 28.1868 25.4195 28.4826 24.6748 28.4826H5.01967C4.27497 28.4826 3.56078 28.1868 3.0342 27.6602C2.50762 27.1336 2.21179 26.4195 2.21179 25.6748V13.0393Z" stroke="#C8D3DE" stroke-width="2.80788" stroke-linecap="round" stroke-linejoin="round"/>
</svg>
